<?xml version="1.0" standalone="no"?>
<!DOCTYPE svg PUBLIC "-//W3C//DTD SVG 20010904//EN"
 "http://www.w3.org/TR/2001/REC-SVG-20010904/DTD/svg10.dtd">
<svg version="1.0" xmlns="http://www.w3.org/2000/svg"
 width="32.000000pt" height="32.000000pt" viewBox="0 0 32.000000 32.000000"
 preserveAspectRatio="xMidYMid meet">

<g transform="translate(0.000000,32.000000) scale(0.100000,-0.100000)"
fill="#000000" stroke="none">
<path d="M119 311 c-101 -32 -149 -146 -98 -231 22 -35 48 -59 81 -72 14 -6
18 -3 18 12 0 13 -7 20 -19 20 -11 0 -27 10 -35 22 -20 28 -12 37 12 15 23
-21 42 -22 42 -2 0 8 -7 15 -15 15 -30 0 -47 45 -40 105 7 52 9 56 29 50 27
-8 105 -8 132 0 20 6 22 2 29 -50 7 -60 -10 -105 -40 -105 -11 0 -15 -12 -15
-45 0 -39 2 -43 18 -37 88 35 126 137 82 221 -32 63 -117 102 -181 82z"/>
</g>
</svg>
