<?xml version="1.0" encoding="UTF-8"?>
<svg xmlns="http://www.w3.org/2000/svg" xmlns:xlink="http://www.w3.org/1999/xlink" width="159px" height="25px" viewBox="0 0 158 25" version="1.1">
<g id="surface1">
<path style=" stroke:none;fill-rule:nonzero;fill:rgb(0%,0%,0%);fill-opacity:1;" d="M 1.039062 12.5 L 1.039062 24.304688 L 4.152344 24.304688 L 4.152344 13.542969 L 16.949219 13.542969 L 16.949219 24.304688 L 20.0625 24.304688 L 20.0625 0.695312 L 16.984375 0.695312 L 16.878906 5.972656 L 16.777344 11.285156 L 4.324219 11.285156 L 4.21875 5.972656 L 4.117188 0.695312 L 1.039062 0.695312 Z M 1.039062 12.5 "/>
<path style=" stroke:none;fill-rule:nonzero;fill:rgb(0%,0%,0%);fill-opacity:1;" d="M 24.417969 4.410156 C 25.042969 6.492188 26.703125 11.804688 28.085938 16.25 L 30.578125 24.339844 L 31.996094 24.234375 L 33.378906 24.132812 L 36.527344 14.792969 L 39.671875 5.453125 L 42.09375 12.535156 C 43.441406 16.421875 44.859375 20.660156 45.277344 21.980469 L 46.070312 24.304688 L 48.734375 24.304688 L 50.464844 18.820312 C 53.820312 8.125 56.035156 1.007812 56.035156 0.867188 C 56.035156 0.484375 53.335938 0.730469 52.988281 1.109375 C 52.816406 1.355469 51.535156 5.382812 50.152344 10.070312 C 48.804688 14.757812 47.59375 18.820312 47.523438 19.097656 C 47.421875 19.375 45.96875 15.519531 44.273438 10.484375 C 42.578125 5.453125 41.089844 1.214844 40.988281 1.042969 C 40.710938 0.589844 38.84375 0.589844 38.566406 1.007812 C 38.460938 1.214844 36.976562 5.453125 35.28125 10.453125 C 33.585938 15.453125 32.132812 19.339844 32.027344 19.0625 C 31.925781 18.785156 30.75 14.757812 29.367188 10.070312 C 28.015625 5.382812 26.738281 1.355469 26.5625 1.109375 C 26.355469 0.902344 25.527344 0.695312 24.730469 0.695312 L 23.242188 0.695312 Z M 24.417969 4.410156 "/>
<path style=" stroke:none;fill-rule:nonzero;fill:rgb(0%,0%,0%);fill-opacity:1;" d="M 62.222656 7.777344 C 60.597656 8.367188 59.628906 9.0625 58.660156 10.382812 C 56.171875 13.785156 56.757812 20.070312 59.804688 22.671875 C 61.324219 23.921875 63.019531 24.410156 65.71875 24.234375 C 68.691406 24.0625 70.492188 22.953125 71.769531 20.382812 C 72.773438 18.367188 72.945312 14.859375 72.21875 12.359375 C 71.078125 8.578125 66.238281 6.320312 62.222656 7.777344 Z M 67.722656 10.347656 C 68.898438 11.109375 69.59375 12.707031 69.765625 15.105469 C 70.109375 19.304688 68.554688 21.839844 65.476562 22.117188 C 61.914062 22.429688 60.011719 20.277344 60.046875 15.972656 C 60.046875 13.265625 60.53125 11.839844 61.84375 10.660156 C 63.261719 9.339844 65.996094 9.203125 67.722656 10.347656 Z M 67.722656 10.347656 "/>
<path style=" stroke:none;fill-rule:nonzero;fill:rgb(0%,0%,0%);fill-opacity:1;" d="M 81.972656 7.671875 C 81.492188 7.882812 80.695312 8.4375 80.175781 8.921875 C 79.171875 9.894531 79.242188 9.929688 78.6875 8.160156 C 78.621094 7.847656 78.136719 7.640625 77.476562 7.640625 L 76.441406 7.640625 L 76.441406 24.304688 L 79.207031 24.304688 L 79.207031 18.054688 C 79.207031 12.1875 79.242188 11.769531 79.933594 11.078125 C 81.699219 9.304688 84.222656 9.132812 85.433594 10.695312 C 86.054688 11.492188 86.125 12.117188 86.125 17.917969 L 86.125 24.304688 L 88.890625 24.304688 L 88.890625 18.992188 C 88.890625 13.160156 89.167969 11.632812 90.449219 10.417969 C 91.660156 9.269531 93.839844 9.304688 95.050781 10.554688 L 95.984375 11.457031 L 96.085938 17.882812 L 96.191406 24.304688 L 98.921875 24.304688 L 98.921875 18.296875 C 98.921875 15.035156 98.75 11.734375 98.578125 11.042969 C 98.128906 9.480469 96.226562 7.742188 94.597656 7.429688 C 92.558594 7.046875 90.96875 7.570312 89.480469 9.0625 C 88.71875 9.828125 88.0625 10.382812 88.027344 10.347656 C 87.992188 10.277344 87.75 9.894531 87.542969 9.445312 C 86.609375 7.671875 84.015625 6.875 81.972656 7.671875 Z M 81.972656 7.671875 "/>
<path style=" stroke:none;fill-rule:nonzero;fill:rgb(0%,0%,0%);fill-opacity:1;" d="M 108.78125 7.777344 C 108.226562 8.019531 107.433594 8.578125 107.085938 8.992188 C 106.222656 9.964844 105.910156 9.929688 105.769531 8.75 C 105.703125 7.984375 105.496094 7.777344 104.5625 7.707031 L 103.417969 7.605469 L 103.417969 24.304688 L 106.1875 24.304688 L 106.1875 11.492188 L 107.398438 10.554688 C 109.09375 9.269531 111.203125 9.269531 112.308594 10.554688 C 113.070312 11.457031 113.105469 11.703125 113.105469 17.917969 L 113.105469 24.304688 L 115.800781 24.304688 L 115.941406 18.125 C 116.042969 11.597656 116.21875 10.902344 117.878906 10.035156 C 118.914062 9.480469 120.921875 9.515625 121.648438 10.140625 C 122.859375 11.144531 123.136719 12.671875 123.136719 18.578125 L 123.136719 24.304688 L 125.972656 24.304688 L 125.832031 17.777344 C 125.730469 12.046875 125.660156 11.144531 125.039062 10.105469 C 123.066406 6.769531 118.847656 6.355469 116.042969 9.269531 L 114.867188 10.484375 L 114.347656 9.410156 C 113.347656 7.5 110.996094 6.804688 108.78125 7.777344 Z M 108.78125 7.777344 "/>
<path style=" stroke:none;fill-rule:nonzero;fill:rgb(0%,0%,0%);fill-opacity:1;" d="M 133.0625 8.019531 C 130.398438 9.445312 128.703125 13.195312 129.152344 16.769531 C 129.5 19.410156 130.847656 21.945312 132.507812 23.125 C 134.929688 24.792969 140.046875 24.652344 142.332031 22.847656 C 143.335938 22.046875 143.402344 21.769531 142.675781 21.042969 C 142.191406 20.554688 141.984375 20.589844 140.707031 21.25 C 138.5625 22.394531 136.035156 22.464844 134.582031 21.457031 C 133.164062 20.519531 132.265625 19.097656 131.953125 17.257812 L 131.710938 15.972656 L 143.644531 15.972656 L 143.4375 13.679688 C 143.230469 11.007812 142.054688 8.992188 140.082031 7.953125 C 138.421875 7.046875 134.824219 7.082031 133.0625 8.019531 Z M 139.046875 9.929688 C 140.046875 10.554688 141.121094 12.394531 141.121094 13.542969 C 141.121094 14.203125 140.878906 14.234375 136.625 14.234375 C 132.335938 14.234375 132.128906 14.203125 132.128906 13.542969 C 132.128906 10.484375 136.3125 8.332031 139.046875 9.929688 Z M 139.046875 9.929688 "/>
<path style=" stroke:none;fill-rule:nonzero;fill:rgb(0%,0%,0%);fill-opacity:1;" d="M 153.363281 7.777344 C 152.777344 8.054688 151.808594 8.855469 151.21875 9.582031 L 150.113281 10.9375 L 150.113281 9.828125 C 150.113281 8.125 149.800781 7.640625 148.695312 7.640625 L 147.691406 7.640625 L 147.691406 24.304688 L 150.113281 24.304688 L 150.113281 19.269531 C 150.113281 13.578125 150.390625 12.5 152.222656 10.972656 C 153.261719 10.105469 153.574219 10 155.164062 10.171875 C 157.101562 10.382812 157.378906 10.171875 157.378906 8.507812 C 157.378906 7.292969 155.371094 6.910156 153.363281 7.777344 Z M 153.363281 7.777344 "/>
</g>
</svg>
